IKResults
version=1
nRows=11
nColumns=63
inDegrees=yes

Units are S.I. units (second, meters, Newtons, ...)
If the header above contains a line with 'inDegrees', this indicates whether rotational values are in degrees (yes) or radians (no).

endheader
time	pelvis_tilt	pelvis_list	pelvis_rotation	pelvis_tx	pelvis_ty	pelvis_tz	hip_flexion_r	hip_adduction_r	hip_rotation_r	knee_angle_r	knee_angle_r_beta	ankle_angle_r	subtalar_angle_r	mtp_angle_r	hip_flexion_l	hip_adduction_l	hip_rotation_l	knee_angle_l	knee_angle_l_beta	ankle_angle_l	subtalar_angle_l	mtp_angle_l	L5_S1_Flex_Ext	L5_S1_Lat_Bending	L5_S1_axial_rotation	L4_L5_Flex_Ext	L4_L5_Lat_Bending	L4_L5_axial_rotation	L3_L4_Flex_Ext	L3_L4_Lat_Bending	L3_L4_axial_rotation	L2_L3_Flex_Ext	L2_L3_Lat_Bending	L2_L3_axial_rotation	L1_L2_Flex_Ext	L1_L2_Lat_Bending	L1_L2_axial_rotation	L1_T12_Flex_Ext	L1_T12_Lat_Bending	L1_T12_axial_rotation	Abs_r3	Abs_r2	Abs_r1	Abs_t1	Abs_t2	neck_flexion	neck_bending	neck_rotation	arm_flex_r	arm_add_r	arm_rot_r	elbow_flex_r	pro_sup_r	wrist_flex_r	wrist_dev_r	arm_flex_l	arm_add_l	arm_rot_l	elbow_flex_l	pro_sup_l	wrist_flex_l	wrist_dev_l
      4.03333333	    113.53025460	    -41.60155148	    204.72648371	     -0.49271710	      0.19164559	     -0.36734783	     23.47387416	     -6.97504556	    -39.92058364	      5.57386216	      0.09728225	    -19.60605709	    -19.85959186	      0.00000000	     30.82004902	    -21.64559784	    -39.24050138	      0.14043095	      0.00245098	    -14.59155680	      8.57551641	      0.00000000	      1.80564174	      1.81462157	     -3.27633979	      3.35325728	      2.41344668	     -3.48111103	      2.96648882	      4.41207087	     -3.48111103	      2.06366795	      4.41207087	     -2.86679732	      1.67671892	      3.70037630	     -2.66202608	      1.03174369	      2.81084880	     -2.45725484	     12.89751840	     20.52736207	    -18.22201902	      0.00000000	      0.00000000	     27.04963011	      7.11865579	    -44.78593501	     51.37807178	    -68.18001084	    -10.93283647	     51.90532696	     89.99559364	      0.00000000	      0.00000000	    -45.34537621	    -81.30423767	      9.58870686	     75.61987147	     89.99559364	      0.00000000	      0.00000000
      4.06666667	    113.42416147	    -41.37484144	    204.48059199	     -0.49047567	      0.19390559	     -0.36776455	     23.57135766	     -6.54557334	    -39.92066971	      5.46663937	      0.09541086	    -19.46650387	    -19.85961223	      0.00000000	     30.88211406	    -22.04282099	    -39.23725148	      0.13628860	      0.00237868	    -14.71654149	      9.14462052	      0.00000000	      1.86828471	      1.82310082	     -3.28145880	      3.46959153	      2.42472409	     -3.48654998	      3.06940495	      4.43268734	     -3.48654998	      2.13526259	      4.43268734	     -2.87127645	      1.73488918	      3.71766719	     -2.66618528	      1.06753788	      2.82398317	     -2.46109410	     13.34497085	     20.62328111	    -18.25048942	      0.00000000	      0.00000000	     27.06118884	      7.38836210	    -44.78279192	     44.70882288	    -67.12776901	    -18.01025708	     56.05080426	     89.99559364	      0.00000000	      0.00000000	    -45.02710674	    -79.33554184	      9.64406787	     75.61078777	     89.99559364	      0.00000000	      0.00000000
      4.10000000	    113.37447619	    -41.09537641	    204.31119343	     -0.48788053	      0.19629741	     -0.36813733	     23.73612769	     -6.06098593	    -39.91980770	      5.37189313	      0.09375722	    -19.21351761	    -19.85791491	      0.00000000	     31.01299315	    -22.45259203	    -39.18338351	      0.13330716	      0.00232665	    -14.95010702	      9.71827303	      0.00000000	      1.96460695	      1.82954321	     -3.27515687	      3.64847157	      2.43329247	     -3.47985418	      3.22765276	      4.44835136	     -3.47985418	      2.24534929	      4.44835136	     -2.86576226	      1.82433402	      3.73080451	     -2.66106496	      1.12257641	      2.83396243	     -2.45636766	     14.03299101	     20.69615871	    -18.21543999	      0.00000000	      0.00000000	     27.09856757	      7.65558011	    -44.78069299	     36.72584873	    -65.71093122	    -25.97986186	     61.25925849	     89.99559364	      0.00000000	      0.00000000	    -44.55202401	    -76.72069873	      9.72924443	     75.60153362	     89.99559364	      0.00000000	      0.00000000
      4.13333333	    113.50840424	    -40.73144200	    204.38455504	     -0.48490278	      0.19865901	     -0.36824999	     24.05618106	     -5.56106964	    -39.91839323	      5.29895553	      0.09248422	    -18.76413374	    -19.85497140	      0.00000000	     31.33356822	    -22.82532642	    -39.13288141	      0.13043187	      0.00227647	    -15.24467775	     10.58279749	      0.00000000	      2.12169370	      1.83317260	     -3.26995672	      3.94019737	      2.43811956	     -3.47432901	      3.48573058	      4.45717586	     -3.47432901	      2.42488373	      4.45717586	     -2.86121213	      1.97020477	      3.73820556	     -2.65683983	      1.21233578	      2.83958436	     -2.45246754	     15.15504594	     20.73721508	    -18.18651829	      0.00000000	      0.00000000	     27.10545715	      7.90703442	    -44.77788128	     27.84984049	    -63.82244031	    -34.14696887	     67.41981592	     89.99559364	      0.00000000	      0.00000000	    -43.53708750	    -72.97874159	      9.83440552	     75.58998094	     89.99559364	      0.00000000	      0.00000000
      4.16666667	    113.51490132	    -40.33632831	    204.53760524	     -0.48198844	      0.20111064	     -0.36822458	     24.29474942	     -5.03153580	    -39.91635193	      5.28090065	      0.09216910	    -18.09639112	    -19.85074604	      0.00000000	     31.63001498	    -23.16265464	    -39.08471569	      0.12898222	      0.00225116	    -15.57175605	     11.79675677	      0.00000000	      2.29378915	      1.84004572	     -3.27771864	      4.25979582	      2.44726081	     -3.48257605	      3.76846619	      4.47388717	     -3.48257605	      2.62157162	      4.47388717	     -2.86800381	      2.13001260	      3.75222124	     -2.66314639	      1.31067112	      2.85023082	     -2.45828898	     16.38430650	     20.81496522	    -18.22968774	      0.00000000	      0.00000000	     27.17248522	      8.00276389	    -44.77422753	     18.97703055	    -61.24060233	    -41.86676621	     74.29207277	     89.99559364	      0.00000000	      0.00000000	    -34.80884177	    -61.83161390	      9.68098749	     75.53790973	     89.99559364	      0.00000000	      0.00000000
      4.20000000	    113.63152748	    -39.89333888	    204.88560328	     -0.47866655	      0.20345309	     -0.36791852	     24.63794787	     -4.49847586	    -39.91326179	      5.32015646	      0.09285425	    -17.09290316	    -19.84473809	      0.00000000	     32.04130931	    -23.43956523	    -38.97748203	      0.12874931	      0.00224710	    -15.97114008	     13.14568541	      0.00000000	      2.52522101	      1.83786983	     -3.23829281	      4.68958794	      2.44436688	     -3.44068611	      4.14868560	      4.46859671	     -3.44068611	      2.88607510	      4.46859671	     -2.83350621	      2.34492023	      3.74778417	     -2.63111291	      1.44291129	      2.84686037	     -2.42871961	     18.03740118	     20.79035113	    -18.01041314	      0.00000000	      0.00000000	     27.24825500	      7.94675815	    -44.77247646	      9.64521250	    -58.08205417	    -49.32159417	     81.78971048	     89.99559364	      0.00000000	      0.00000000	    -33.60391061	    -59.73924285	      9.73321025	     75.52906909	     89.99559364	      0.00000000	      0.00000000
      4.23333333	    113.99791040	    -39.29779785	    205.61570651	     -0.47522601	      0.20565464	     -0.36692397	     25.26073578	     -4.02451984	    -39.90905194	      5.54544141	      0.09678621	    -15.72400339	    -19.83549803	      0.00000000	     32.78110617	    -23.60528265	    -38.87924115	      0.12887873	      0.00224936	    -16.44382397	     14.70630957	      0.00000000	      2.84047122	      1.84069689	     -3.21389134	      5.27503911	      2.44812686	     -3.41475955	      4.66661017	      4.47547041	     -3.41475955	      3.24637456	      4.47547041	     -2.81215492	      2.63766158	      3.75354909	     -2.61128671	      1.62304526	      2.85123948	     -2.41041851	     20.28920190	     20.82233132	    -17.87469947	      0.00000000	      0.00000000	     27.23897607	      7.66040012	    -44.76535164	      1.17229047	    -54.34130992	    -55.36782060	     89.46496595	     89.99559364	      0.00000000	      0.00000000	    -27.43597087	    -49.97087044	      9.99749841	     75.49400171	     89.99559364	      0.00000000	      0.00000000
      4.26666667	    114.43865718	    -38.62908110	    206.53700715	     -0.47166477	      0.20768726	     -0.36546958	     25.97721535	     -3.54912795	    -39.90310225	      5.82660030	      0.10169336	    -13.96060010	    -19.82357099	      0.00000000	     33.63736963	    -23.67615001	    -38.59733893	      0.12933283	      0.00225728	    -16.91990249	     16.17749569	      0.00000000	      3.21076262	      1.83944087	     -3.16748747	      5.96270727	      2.44645635	     -3.36545544	      5.27496191	      4.47241652	     -3.36545544	      3.66958060	      4.47241652	     -2.77155154	      2.98151417	      3.75098782	     -2.57358357	      1.83462976	      2.84929390	     -2.37561560	     22.93415634	     20.80812297	    -17.61661507	      0.00000000	      0.00000000	     27.20681608	      7.11022525	    -44.75641584	     -6.72354961	    -50.13881704	    -60.17019354	     97.06480037	     89.99559364	      0.00000000	      0.00000000	    -24.49365622	    -44.14290407	     10.24728486	     75.46228996	     89.99559364	      0.00000000	      0.00000000
      4.30000000	    114.99972998	    -37.81666002	    207.67244781	     -0.46807897	      0.20965733	     -0.36337567	     26.91627093	     -3.09857942	    -39.89490812	      6.30002056	      0.10995610	    -11.83509419	    -19.80654992	      0.00000000	     34.70858825	    -23.66400731	    -38.03041581	      0.13175734	      0.00229960	    -17.42285117	     17.34353783	      0.00000000	      3.64653678	      1.84163531	     -3.11016577	      6.77198345	      2.44937496	     -3.30455113	      5.99089527	      4.47775209	     -3.30455113	      4.16762688	      4.47775209	     -2.72139505	      3.38617405	      3.75546272	     -2.52700969	      2.08363111	      2.85269310	     -2.33262433	     26.04684753	     20.83294695	    -17.29780896	      0.00000000	      0.00000000	     27.05109152	      6.13152456	    -44.74026483	    -13.77760509	    -45.73552472	    -63.50744940	    104.28876865	     89.99559364	      0.00000000	      0.00000000	    -24.27634211	    -41.61598727	     10.42244294	     75.45475716	     89.99559364	      0.00000000	      0.00000000
      4.33333333	    115.57604881	    -36.89219486	    209.07925019	     -0.46485724	      0.21176150	     -0.36049639	     27.97689663	     -2.75371347	    -39.88413674	      6.96252610	      0.12151900	     -9.32376657	    -19.78468684	      0.00000000	     35.97378112	    -23.46332071	    -36.83399487	      0.13561994	      0.00236701	    -17.89871972	     17.91244801	      0.00000000	      4.12635794	      1.84388572	     -3.10537365	      7.66305932	      2.45236801	     -3.29945951	      6.77919345	      4.48322375	     -3.29945951	      4.71601449	      4.48322375	     -2.71720195	      3.83173598	      3.76005177	     -2.52311609	      2.35780093	      2.85617898	     -2.32903024	     29.47416211	     20.85840407	    -17.27115665	      0.00000000	      0.00000000	     26.66200066	      4.93480667	    -44.71092319	    -19.55078926	    -41.44091663	    -64.99335662	    110.77341357	     89.99559364	      0.00000000	      0.00000000	    -23.12893192	    -33.46220866	     10.96637862	     75.43003416	     89.99559364	      0.00000000	      0.00000000
      4.36666667	    116.20882094	    -35.81826453	    210.76085988	     -0.46194017	      0.21386505	     -0.35683434	     29.23298287	     -2.51828753	    -39.86968482	      7.84829935	      0.13697866	     -6.37597547	    -19.75520201	      0.00000000	     37.45928192	    -23.09358403	    -34.89900221	      0.14260716	      0.00248896	    -18.13433700	     18.04353118	      0.00000000	      4.66794079	      1.83898192	     -3.13002132	      8.66883285	      2.44584595	     -3.32564765	      7.66895993	      4.47130064	     -3.32564765	      5.33498953	      4.47130064	     -2.73876865	      4.33464982	      3.75005193	     -2.54314232	      2.66726137	      2.84858299	     -2.34751599	     33.34263429	     20.80293127	    -17.40823955	      0.00000000	      0.00000000	     25.96420145	      3.53795157	    -44.66707614	    -24.73739232	    -37.60561107	    -65.06703834	    116.38231861	     89.99559364	      0.00000000	      0.00000000	    -22.92776571	    -32.04336861	     11.06179452	     75.42407427	     89.99559364	      0.00000000	      0.00000000
